<?xml version="1.0" encoding="UTF-8"?>
<!-- Burizza passive icon: Feedback Loop. Generated by make_icons.py, 64x64. -->
<svg xmlns="http://www.w3.org/2000/svg" viewBox="0 0 64 64" width="128" height="128">
<defs>
<linearGradient id="steel" x1="0" y1="0" x2="1" y2="1"><stop offset="0" stop-color="#f4f7fc"/><stop offset=".5" stop-color="#aab4c7"/><stop offset="1" stop-color="#5d6780"/></linearGradient>
<linearGradient id="iron" x1="0" y1="0" x2="1" y2="1"><stop offset="0" stop-color="#9aa3b5"/><stop offset="1" stop-color="#454d61"/></linearGradient>
<linearGradient id="gold" x1="0" y1="0" x2="0" y2="1"><stop offset="0" stop-color="#ffe9a8"/><stop offset=".55" stop-color="#e0a83c"/><stop offset="1" stop-color="#8a5a14"/></linearGradient>
<linearGradient id="fire" x1="0" y1="0" x2="0" y2="1"><stop offset="0" stop-color="#e8391c"/><stop offset=".55" stop-color="#ff9a2e"/><stop offset="1" stop-color="#ffe680"/></linearGradient>
<radialGradient id="fireR" cx=".45" cy=".45" r=".6"><stop offset="0" stop-color="#fff6c2"/><stop offset=".45" stop-color="#ffb43d"/><stop offset="1" stop-color="#d9361a"/></radialGradient>
<linearGradient id="bolt" x1="0" y1="0" x2="1" y2="1"><stop offset="0" stop-color="#ffffff"/><stop offset=".5" stop-color="#a6ecff"/><stop offset="1" stop-color="#3fa2f0"/></linearGradient>
<linearGradient id="blood" x1="0" y1="0" x2="0" y2="1"><stop offset="0" stop-color="#ff6060"/><stop offset="1" stop-color="#9a0f1c"/></linearGradient>
<linearGradient id="poison" x1="0" y1="0" x2="0" y2="1"><stop offset="0" stop-color="#d6ff86"/><stop offset="1" stop-color="#4c9a28"/></linearGradient>
<linearGradient id="water" x1="0" y1="0" x2="0" y2="1"><stop offset="0" stop-color="#b4f4ff"/><stop offset="1" stop-color="#2a86b8"/></linearGradient>
<linearGradient id="ink" x1="0" y1="0" x2="0" y2="1"><stop offset="0" stop-color="#9474c4"/><stop offset="1" stop-color="#2a1d40"/></linearGradient>
<linearGradient id="wood" x1="0" y1="0" x2="1" y2="0"><stop offset="0" stop-color="#c48e56"/><stop offset="1" stop-color="#6b4422"/></linearGradient>
<linearGradient id="leaf" x1="0" y1="0" x2="1" y2="1"><stop offset="0" stop-color="#c4f58a"/><stop offset="1" stop-color="#3a8a38"/></linearGradient>
<linearGradient id="hex" x1="0" y1="0" x2="0" y2="1"><stop offset="0" stop-color="#e09aff"/><stop offset="1" stop-color="#5a1f7a"/></linearGradient>
<linearGradient id="bone" x1="0" y1="0" x2="0" y2="1"><stop offset="0" stop-color="#fbf4e2"/><stop offset="1" stop-color="#b8a684"/></linearGradient>
<linearGradient id="heal" x1="0" y1="0" x2="0" y2="1"><stop offset="0" stop-color="#d4ffb0"/><stop offset="1" stop-color="#3fae4f"/></linearGradient>
<linearGradient id="mana" x1="0" y1="0" x2="0" y2="1"><stop offset="0" stop-color="#bfe6ff"/><stop offset="1" stop-color="#2f6fd0"/></linearGradient>
<linearGradient id="clay" x1="0" y1="0" x2="1" y2="1"><stop offset="0" stop-color="#d98a5a"/><stop offset="1" stop-color="#7a3a1e"/></linearGradient>
<linearGradient id="hide" x1="0" y1="0" x2="0" y2="1"><stop offset="0" stop-color="#7a604a"/><stop offset="1" stop-color="#3e2e22"/></linearGradient>
<linearGradient id="demon" x1="0" y1="0" x2="0" y2="1"><stop offset="0" stop-color="#c84a4a"/><stop offset="1" stop-color="#5a1418"/></linearGradient>
<radialGradient id="holy" cx=".5" cy=".5" r=".5"><stop offset="0" stop-color="#fffbe6"/><stop offset=".5" stop-color="#ffe08a" stop-opacity=".8"/><stop offset="1" stop-color="#ffd060" stop-opacity="0"/></radialGradient>
<radialGradient id="pearl" cx=".38" cy=".35" r=".7"><stop offset="0" stop-color="#ffffff"/><stop offset=".6" stop-color="#f2e6f0"/><stop offset="1" stop-color="#b8a8c4"/></radialGradient>
<filter id="blur" x="-50%" y="-50%" width="200%" height="200%"><feGaussianBlur stdDeviation="2.2"/></filter>
<filter id="ds" x="-20%" y="-20%" width="140%" height="140%"><feDropShadow dx="0" dy="1.4" stdDeviation="1" flood-color="#000" flood-opacity=".55"/></filter>
<radialGradient id="bg" cx=".5" cy=".3" r=".85"><stop offset="0" stop-color="#3e4c61"/><stop offset="1" stop-color="#12171f"/></radialGradient></defs>
<circle cx="32" cy="32" r="30" fill="url(#bg)"/>
<circle cx="32" cy="32" r="26" fill="none" stroke="#f0a73a" stroke-width="1" stroke-dasharray="2 3" opacity=".55"/>
<g filter="url(#ds)" stroke="#15121d" stroke-width="1.6" stroke-linejoin="round" stroke-linecap="round" transform="translate(32 32) scale(.86) translate(-32 -32)"><path d="M18 22 A17 17 0 0 1 48 24" fill="none" stroke="#7fe3ff" stroke-width="3"/><path d="M44 18 L49 25 L41 26" fill="none" stroke="#7fe3ff" stroke-width="3"/><path d="M46 42 A17 17 0 0 1 16 40" fill="none" stroke="#7fe3ff" stroke-width="3"/><path d="M20 46 L15 39 L23 38" fill="none" stroke="#7fe3ff" stroke-width="3"/><g transform="translate(32 32) rotate(10) scale(0.6)"><line x1="0" y1="15.0" x2="0" y2="-8.0" stroke="#15121d" stroke-width="6.4"/><line x1="0" y1="15.0" x2="0" y2="-8.0" stroke="#8a5a32" stroke-width="3.4"/><path d="M0 -17.0 L7 -6.0 L0 -9.0 L-7 -6.0 Z" fill="url(#steel)"/><path d="M0 10.0 L-5.5 16.0 L-4 19.0 L0 15.0 Z" fill="#9ac46b"/><path d="M0 10.0 L5.5 16.0 L4 19.0 L0 15.0 Z" fill="#9ac46b"/></g></g>
<circle cx="32" cy="32" r="30" fill="none" stroke="#f0a73a" stroke-width="2.2"/>
</svg>
