<?xml version="1.0" encoding="UTF-8"?>
<!-- Burizza skill icon: Gore. Generated by make_icons.py, 64x64. -->
<svg xmlns="http://www.w3.org/2000/svg" viewBox="0 0 64 64" width="128" height="128">
<defs>
<linearGradient id="steel" x1="0" y1="0" x2="1" y2="1"><stop offset="0" stop-color="#f4f7fc"/><stop offset=".5" stop-color="#aab4c7"/><stop offset="1" stop-color="#5d6780"/></linearGradient>
<linearGradient id="iron" x1="0" y1="0" x2="1" y2="1"><stop offset="0" stop-color="#9aa3b5"/><stop offset="1" stop-color="#454d61"/></linearGradient>
<linearGradient id="gold" x1="0" y1="0" x2="0" y2="1"><stop offset="0" stop-color="#ffe9a8"/><stop offset=".55" stop-color="#e0a83c"/><stop offset="1" stop-color="#8a5a14"/></linearGradient>
<linearGradient id="fire" x1="0" y1="0" x2="0" y2="1"><stop offset="0" stop-color="#e8391c"/><stop offset=".55" stop-color="#ff9a2e"/><stop offset="1" stop-color="#ffe680"/></linearGradient>
<radialGradient id="fireR" cx=".45" cy=".45" r=".6"><stop offset="0" stop-color="#fff6c2"/><stop offset=".45" stop-color="#ffb43d"/><stop offset="1" stop-color="#d9361a"/></radialGradient>
<linearGradient id="bolt" x1="0" y1="0" x2="1" y2="1"><stop offset="0" stop-color="#ffffff"/><stop offset=".5" stop-color="#a6ecff"/><stop offset="1" stop-color="#3fa2f0"/></linearGradient>
<linearGradient id="blood" x1="0" y1="0" x2="0" y2="1"><stop offset="0" stop-color="#ff6060"/><stop offset="1" stop-color="#9a0f1c"/></linearGradient>
<linearGradient id="poison" x1="0" y1="0" x2="0" y2="1"><stop offset="0" stop-color="#d6ff86"/><stop offset="1" stop-color="#4c9a28"/></linearGradient>
<linearGradient id="water" x1="0" y1="0" x2="0" y2="1"><stop offset="0" stop-color="#b4f4ff"/><stop offset="1" stop-color="#2a86b8"/></linearGradient>
<linearGradient id="ink" x1="0" y1="0" x2="0" y2="1"><stop offset="0" stop-color="#9474c4"/><stop offset="1" stop-color="#2a1d40"/></linearGradient>
<linearGradient id="wood" x1="0" y1="0" x2="1" y2="0"><stop offset="0" stop-color="#c48e56"/><stop offset="1" stop-color="#6b4422"/></linearGradient>
<linearGradient id="leaf" x1="0" y1="0" x2="1" y2="1"><stop offset="0" stop-color="#c4f58a"/><stop offset="1" stop-color="#3a8a38"/></linearGradient>
<linearGradient id="hex" x1="0" y1="0" x2="0" y2="1"><stop offset="0" stop-color="#e09aff"/><stop offset="1" stop-color="#5a1f7a"/></linearGradient>
<linearGradient id="bone" x1="0" y1="0" x2="0" y2="1"><stop offset="0" stop-color="#fbf4e2"/><stop offset="1" stop-color="#b8a684"/></linearGradient>
<linearGradient id="heal" x1="0" y1="0" x2="0" y2="1"><stop offset="0" stop-color="#d4ffb0"/><stop offset="1" stop-color="#3fae4f"/></linearGradient>
<linearGradient id="mana" x1="0" y1="0" x2="0" y2="1"><stop offset="0" stop-color="#bfe6ff"/><stop offset="1" stop-color="#2f6fd0"/></linearGradient>
<linearGradient id="clay" x1="0" y1="0" x2="1" y2="1"><stop offset="0" stop-color="#d98a5a"/><stop offset="1" stop-color="#7a3a1e"/></linearGradient>
<linearGradient id="hide" x1="0" y1="0" x2="0" y2="1"><stop offset="0" stop-color="#7a604a"/><stop offset="1" stop-color="#3e2e22"/></linearGradient>
<linearGradient id="demon" x1="0" y1="0" x2="0" y2="1"><stop offset="0" stop-color="#c84a4a"/><stop offset="1" stop-color="#5a1418"/></linearGradient>
<radialGradient id="holy" cx=".5" cy=".5" r=".5"><stop offset="0" stop-color="#fffbe6"/><stop offset=".5" stop-color="#ffe08a" stop-opacity=".8"/><stop offset="1" stop-color="#ffd060" stop-opacity="0"/></radialGradient>
<radialGradient id="pearl" cx=".38" cy=".35" r=".7"><stop offset="0" stop-color="#ffffff"/><stop offset=".6" stop-color="#f2e6f0"/><stop offset="1" stop-color="#b8a8c4"/></radialGradient>
<linearGradient id="grave" x1="0" y1="0" x2="0" y2="1"><stop offset="0" stop-color="#dcffe6"/><stop offset="1" stop-color="#4f8a60"/></linearGradient>
<radialGradient id="graveR" cx=".5" cy=".5" r=".5"><stop offset="0" stop-color="#eafff0"/><stop offset=".5" stop-color="#9fe8b4" stop-opacity=".75"/><stop offset="1" stop-color="#6fcf8a" stop-opacity="0"/></radialGradient>
<linearGradient id="shroud" x1="0" y1="0" x2="0" y2="1"><stop offset="0" stop-color="#8a9a8c"/><stop offset="1" stop-color="#2e3a30"/></linearGradient>
<filter id="blur" x="-50%" y="-50%" width="200%" height="200%"><feGaussianBlur stdDeviation="2.2"/></filter>
<filter id="ds" x="-20%" y="-20%" width="140%" height="140%"><feDropShadow dx="0" dy="1.4" stdDeviation="1" flood-color="#000" flood-opacity=".55"/></filter>
<radialGradient id="bg" cx=".5" cy=".3" r=".85"><stop offset="0" stop-color="#61361f"/><stop offset="1" stop-color="#1e0e08"/></radialGradient></defs>
<rect x="2" y="2" width="60" height="60" rx="11" fill="url(#bg)"/>
<rect x="5.5" y="5.5" width="53" height="53" rx="8" fill="none" stroke="#d48c3c" stroke-width="1" opacity="0.25"/>
<g filter="url(#ds)" stroke="#15121d" stroke-width="1.6" stroke-linejoin="round" stroke-linecap="round"><polygon points="46.0,9.0 47.5,14.3 52.4,11.6 49.7,16.5 55.0,18.0 49.7,19.5 52.4,24.4 47.5,21.7 46.0,27.0 44.5,21.7 39.6,24.4 42.3,19.5 37.0,18.0 42.3,16.5 39.6,11.6 44.5,14.3" fill="#ffd166"/><path d="M14 54 C14 38 26 24 44 18 C34 28 28 40 26 54 Z" fill="url(#bone)"/><path d="M18 50 C20 40 26 32 34 26" fill="none" stroke="#b8a684" stroke-width="1.4"/></g>
<rect x="2" y="2" width="60" height="60" rx="11" fill="none" stroke="#d48c3c" stroke-width="2" opacity="0.85"/>

</svg>
