<?xml version="1.0" encoding="UTF-8"?>
<!-- Burizza skill icon: Gutpiercer (signature). Generated by make_icons.py, 64x64. -->
<svg xmlns="http://www.w3.org/2000/svg" viewBox="0 0 64 64" width="128" height="128">
<defs>
<linearGradient id="steel" x1="0" y1="0" x2="1" y2="1"><stop offset="0" stop-color="#f4f7fc"/><stop offset=".5" stop-color="#aab4c7"/><stop offset="1" stop-color="#5d6780"/></linearGradient>
<linearGradient id="iron" x1="0" y1="0" x2="1" y2="1"><stop offset="0" stop-color="#9aa3b5"/><stop offset="1" stop-color="#454d61"/></linearGradient>
<linearGradient id="gold" x1="0" y1="0" x2="0" y2="1"><stop offset="0" stop-color="#ffe9a8"/><stop offset=".55" stop-color="#e0a83c"/><stop offset="1" stop-color="#8a5a14"/></linearGradient>
<linearGradient id="fire" x1="0" y1="0" x2="0" y2="1"><stop offset="0" stop-color="#e8391c"/><stop offset=".55" stop-color="#ff9a2e"/><stop offset="1" stop-color="#ffe680"/></linearGradient>
<radialGradient id="fireR" cx=".45" cy=".45" r=".6"><stop offset="0" stop-color="#fff6c2"/><stop offset=".45" stop-color="#ffb43d"/><stop offset="1" stop-color="#d9361a"/></radialGradient>
<linearGradient id="bolt" x1="0" y1="0" x2="1" y2="1"><stop offset="0" stop-color="#ffffff"/><stop offset=".5" stop-color="#a6ecff"/><stop offset="1" stop-color="#3fa2f0"/></linearGradient>
<linearGradient id="blood" x1="0" y1="0" x2="0" y2="1"><stop offset="0" stop-color="#ff6060"/><stop offset="1" stop-color="#9a0f1c"/></linearGradient>
<linearGradient id="poison" x1="0" y1="0" x2="0" y2="1"><stop offset="0" stop-color="#d6ff86"/><stop offset="1" stop-color="#4c9a28"/></linearGradient>
<linearGradient id="water" x1="0" y1="0" x2="0" y2="1"><stop offset="0" stop-color="#b4f4ff"/><stop offset="1" stop-color="#2a86b8"/></linearGradient>
<linearGradient id="ink" x1="0" y1="0" x2="0" y2="1"><stop offset="0" stop-color="#9474c4"/><stop offset="1" stop-color="#2a1d40"/></linearGradient>
<linearGradient id="wood" x1="0" y1="0" x2="1" y2="0"><stop offset="0" stop-color="#c48e56"/><stop offset="1" stop-color="#6b4422"/></linearGradient>
<linearGradient id="leaf" x1="0" y1="0" x2="1" y2="1"><stop offset="0" stop-color="#c4f58a"/><stop offset="1" stop-color="#3a8a38"/></linearGradient>
<linearGradient id="hex" x1="0" y1="0" x2="0" y2="1"><stop offset="0" stop-color="#e09aff"/><stop offset="1" stop-color="#5a1f7a"/></linearGradient>
<linearGradient id="bone" x1="0" y1="0" x2="0" y2="1"><stop offset="0" stop-color="#fbf4e2"/><stop offset="1" stop-color="#b8a684"/></linearGradient>
<linearGradient id="heal" x1="0" y1="0" x2="0" y2="1"><stop offset="0" stop-color="#d4ffb0"/><stop offset="1" stop-color="#3fae4f"/></linearGradient>
<linearGradient id="mana" x1="0" y1="0" x2="0" y2="1"><stop offset="0" stop-color="#bfe6ff"/><stop offset="1" stop-color="#2f6fd0"/></linearGradient>
<linearGradient id="clay" x1="0" y1="0" x2="1" y2="1"><stop offset="0" stop-color="#d98a5a"/><stop offset="1" stop-color="#7a3a1e"/></linearGradient>
<linearGradient id="hide" x1="0" y1="0" x2="0" y2="1"><stop offset="0" stop-color="#7a604a"/><stop offset="1" stop-color="#3e2e22"/></linearGradient>
<linearGradient id="demon" x1="0" y1="0" x2="0" y2="1"><stop offset="0" stop-color="#c84a4a"/><stop offset="1" stop-color="#5a1418"/></linearGradient>
<radialGradient id="holy" cx=".5" cy=".5" r=".5"><stop offset="0" stop-color="#fffbe6"/><stop offset=".5" stop-color="#ffe08a" stop-opacity=".8"/><stop offset="1" stop-color="#ffd060" stop-opacity="0"/></radialGradient>
<radialGradient id="pearl" cx=".38" cy=".35" r=".7"><stop offset="0" stop-color="#ffffff"/><stop offset=".6" stop-color="#f2e6f0"/><stop offset="1" stop-color="#b8a8c4"/></radialGradient>
<filter id="blur" x="-50%" y="-50%" width="200%" height="200%"><feGaussianBlur stdDeviation="2.2"/></filter>
<filter id="ds" x="-20%" y="-20%" width="140%" height="140%"><feDropShadow dx="0" dy="1.4" stdDeviation="1" flood-color="#000" flood-opacity=".55"/></filter>
<radialGradient id="bg" cx=".5" cy=".3" r=".85"><stop offset="0" stop-color="#61361f"/><stop offset="1" stop-color="#1e0e08"/></radialGradient></defs>
<rect x="2" y="2" width="60" height="60" rx="11" fill="url(#bg)"/>
<rect x="5.5" y="5.5" width="53" height="53" rx="8" fill="none" stroke="#d48c3c" stroke-width="1" opacity="0.5"/>
<g filter="url(#ds)" stroke="#15121d" stroke-width="1.6" stroke-linejoin="round" stroke-linecap="round"><g transform="translate(30 34) rotate(-8) scale(1.05)"><path d="M-13 -14 Q0 -19 13 -14 L12 6 Q8 15 0 18 Q-8 15 -12 6 Z" fill="url(#iron)"/><path d="M0 -17 V17" stroke-width="1"/><path d="M-6 -4 L-2 1 L-5 6 M6 -6 L3 -1 L7 3" stroke-width="1.2"/></g><polygon points="31.0,26.0 32.1,30.2 35.9,28.1 33.8,31.9 38.0,33.0 33.8,34.1 35.9,37.9 32.1,35.8 31.0,40.0 29.9,35.8 26.1,37.9 28.2,34.1 24.0,33.0 28.2,31.9 26.1,28.1 29.9,30.2" fill="#2a1a1a"/><g transform="translate(32 32) rotate(45) scale(1.1)"><line x1="0" y1="23.0" x2="0" y2="-14.0" stroke="#15121d" stroke-width="5"/><line x1="0" y1="23.0" x2="0" y2="-14.0" stroke="#b07a46" stroke-width="2.6"/><path d="M0 -25.0 C4.5 -19.0 4.5 -15.0 0 -11.0 C-4.5 -15.0 -4.5 -19.0 0 -25.0 Z" fill="url(#steel)"/><rect x="-2.6" y="-12.0" width="5.2" height="3" fill="#c9b28a" stroke-width="1"/></g><g transform="translate(49 23) scale(0.6)"><path d="M0 -8 C3 -3.5 5.2 -.5 5.2 2.8 A5.2 5.2 0 0 1 -5.2 2.8 C-5.2 -.5 -3 -3.5 0 -8 Z" fill="url(#blood)"/></g><g transform="translate(45 27) scale(0.45)"><path d="M0 -8 C3 -3.5 5.2 -.5 5.2 2.8 A5.2 5.2 0 0 1 -5.2 2.8 C-5.2 -.5 -3 -3.5 0 -8 Z" fill="url(#blood)"/></g></g>
<rect x="2" y="2" width="60" height="60" rx="11" fill="none" stroke="url(#gold)" stroke-width="3" opacity="1"/>
<polygon points="53.0,4.6 54.6,8.8 59.1,9.0 55.6,11.8 56.8,16.2 53.0,13.7 49.2,16.2 50.4,11.8 46.9,9.0 51.4,8.8" fill="#15121d"/><polygon points="53.0,6.0 54.2,9.3 57.8,9.5 55.0,11.6 55.9,15.0 53.0,13.1 50.1,15.0 51.0,11.6 48.2,9.5 51.8,9.3" fill="#ffd66a"/>
</svg>
