<?xml version="1.0" encoding="UTF-8"?>
<!-- Burizza skill icon: Rev Up. Generated by make_icons.py, 64x64. -->
<svg xmlns="http://www.w3.org/2000/svg" viewBox="0 0 64 64" width="128" height="128">
<defs>
<linearGradient id="steel" x1="0" y1="0" x2="1" y2="1"><stop offset="0" stop-color="#f4f7fc"/><stop offset=".5" stop-color="#aab4c7"/><stop offset="1" stop-color="#5d6780"/></linearGradient>
<linearGradient id="iron" x1="0" y1="0" x2="1" y2="1"><stop offset="0" stop-color="#9aa3b5"/><stop offset="1" stop-color="#454d61"/></linearGradient>
<linearGradient id="gold" x1="0" y1="0" x2="0" y2="1"><stop offset="0" stop-color="#ffe9a8"/><stop offset=".55" stop-color="#e0a83c"/><stop offset="1" stop-color="#8a5a14"/></linearGradient>
<linearGradient id="fire" x1="0" y1="0" x2="0" y2="1"><stop offset="0" stop-color="#e8391c"/><stop offset=".55" stop-color="#ff9a2e"/><stop offset="1" stop-color="#ffe680"/></linearGradient>
<radialGradient id="fireR" cx=".45" cy=".45" r=".6"><stop offset="0" stop-color="#fff6c2"/><stop offset=".45" stop-color="#ffb43d"/><stop offset="1" stop-color="#d9361a"/></radialGradient>
<linearGradient id="bolt" x1="0" y1="0" x2="1" y2="1"><stop offset="0" stop-color="#ffffff"/><stop offset=".5" stop-color="#a6ecff"/><stop offset="1" stop-color="#3fa2f0"/></linearGradient>
<linearGradient id="blood" x1="0" y1="0" x2="0" y2="1"><stop offset="0" stop-color="#ff6060"/><stop offset="1" stop-color="#9a0f1c"/></linearGradient>
<linearGradient id="poison" x1="0" y1="0" x2="0" y2="1"><stop offset="0" stop-color="#d6ff86"/><stop offset="1" stop-color="#4c9a28"/></linearGradient>
<linearGradient id="water" x1="0" y1="0" x2="0" y2="1"><stop offset="0" stop-color="#b4f4ff"/><stop offset="1" stop-color="#2a86b8"/></linearGradient>
<linearGradient id="ink" x1="0" y1="0" x2="0" y2="1"><stop offset="0" stop-color="#9474c4"/><stop offset="1" stop-color="#2a1d40"/></linearGradient>
<linearGradient id="wood" x1="0" y1="0" x2="1" y2="0"><stop offset="0" stop-color="#c48e56"/><stop offset="1" stop-color="#6b4422"/></linearGradient>
<linearGradient id="leaf" x1="0" y1="0" x2="1" y2="1"><stop offset="0" stop-color="#c4f58a"/><stop offset="1" stop-color="#3a8a38"/></linearGradient>
<linearGradient id="hex" x1="0" y1="0" x2="0" y2="1"><stop offset="0" stop-color="#e09aff"/><stop offset="1" stop-color="#5a1f7a"/></linearGradient>
<linearGradient id="bone" x1="0" y1="0" x2="0" y2="1"><stop offset="0" stop-color="#fbf4e2"/><stop offset="1" stop-color="#b8a684"/></linearGradient>
<linearGradient id="heal" x1="0" y1="0" x2="0" y2="1"><stop offset="0" stop-color="#d4ffb0"/><stop offset="1" stop-color="#3fae4f"/></linearGradient>
<linearGradient id="mana" x1="0" y1="0" x2="0" y2="1"><stop offset="0" stop-color="#bfe6ff"/><stop offset="1" stop-color="#2f6fd0"/></linearGradient>
<linearGradient id="clay" x1="0" y1="0" x2="1" y2="1"><stop offset="0" stop-color="#d98a5a"/><stop offset="1" stop-color="#7a3a1e"/></linearGradient>
<linearGradient id="hide" x1="0" y1="0" x2="0" y2="1"><stop offset="0" stop-color="#7a604a"/><stop offset="1" stop-color="#3e2e22"/></linearGradient>
<linearGradient id="demon" x1="0" y1="0" x2="0" y2="1"><stop offset="0" stop-color="#c84a4a"/><stop offset="1" stop-color="#5a1418"/></linearGradient>
<radialGradient id="holy" cx=".5" cy=".5" r=".5"><stop offset="0" stop-color="#fffbe6"/><stop offset=".5" stop-color="#ffe08a" stop-opacity=".8"/><stop offset="1" stop-color="#ffd060" stop-opacity="0"/></radialGradient>
<radialGradient id="pearl" cx=".38" cy=".35" r=".7"><stop offset="0" stop-color="#ffffff"/><stop offset=".6" stop-color="#f2e6f0"/><stop offset="1" stop-color="#b8a8c4"/></radialGradient>
<filter id="blur" x="-50%" y="-50%" width="200%" height="200%"><feGaussianBlur stdDeviation="2.2"/></filter>
<filter id="ds" x="-20%" y="-20%" width="140%" height="140%"><feDropShadow dx="0" dy="1.4" stdDeviation="1" flood-color="#000" flood-opacity=".55"/></filter>
<radialGradient id="bg" cx=".5" cy=".3" r=".85"><stop offset="0" stop-color="#3e4c61"/><stop offset="1" stop-color="#12171f"/></radialGradient></defs>
<rect x="2" y="2" width="60" height="60" rx="11" fill="url(#bg)"/>
<rect x="5.5" y="5.5" width="53" height="53" rx="8" fill="none" stroke="#f0a73a" stroke-width="1" opacity="0.25"/>
<g filter="url(#ds)" stroke="#15121d" stroke-width="1.6" stroke-linejoin="round" stroke-linecap="round"><g transform="translate(32 36) scale(1.45)"><polygon points="13.5,-1.3 13.5,1.3 10.7,2.7 9.9,4.8 11.2,7.7 9.5,9.7 6.4,8.9 4.5,10.0 3.7,13.1 1.0,13.6 -0.8,11.0 -3.0,10.6 -5.6,12.4 -7.9,11.1 -7.7,7.9 -9.1,6.2 -12.3,5.9 -13.2,3.4 -10.9,1.1 -10.9,-1.1 -13.2,-3.4 -12.3,-5.9 -9.1,-6.2 -7.7,-7.9 -7.9,-11.1 -5.6,-12.4 -3.0,-10.6 -0.8,-11.0 1.0,-13.6 3.7,-13.1 4.5,-10.0 6.4,-8.9 9.5,-9.7 11.2,-7.7 9.9,-4.8 10.7,-2.7" fill="#f0a73a"/><circle r="4.4" fill="#2a2a33"/></g><path d="M13.8 25.5 A21 21 0 0 1 50.2 25.5" fill="none" stroke="#ffd166" stroke-width="2.2" opacity="1.00"/><path d="M9.5 23.0 A26 26 0 0 1 54.5 23.0" fill="none" stroke="#ffd166" stroke-width="2.2" opacity="0.78"/><path d="M5.2 20.5 A31 31 0 0 1 58.8 20.5" fill="none" stroke="#ffd166" stroke-width="2.2" opacity="0.56"/><path d="M32 18 L32 8" fill="none" stroke="#15121d" stroke-width="5.0"/><path d="M32 18 L32 8" fill="none" stroke="#8be28b" stroke-width="2.6"/><path d="M26 13 L32 7 L38 13" fill="none" stroke="#15121d" stroke-width="5.0"/><path d="M26 13 L32 7 L38 13" fill="none" stroke="#8be28b" stroke-width="2.6"/></g>
<rect x="2" y="2" width="60" height="60" rx="11" fill="none" stroke="#f0a73a" stroke-width="2" opacity="0.85"/>

</svg>
