<?xml version="1.0" encoding="UTF-8"?>
<!-- Crypt Ghoul (monster) - Burizza placeholder art.
     Canvas 100x100, faces right, feet on y=94. -->
<svg xmlns="http://www.w3.org/2000/svg" viewBox="0 0 100 100" width="512" height="512">
  <ellipse cx="50" cy="94" rx="23" ry="3.6" fill="#000" opacity=".35"/><path d="M44 76 L40 93 M56 76 L61 93" stroke="#8fa38a" stroke-width="6" stroke-linecap="round"/>
  <path d="M34 78 Q30 54 46 44 Q60 38 68 48 Q72 62 66 80 Z" fill="#3e4440"/>
  <path d="M34 77 l4 7 l4 -5 l4 7 l4 -7 l4 7 l4 -5 l4 7 l4 -7" fill="#3e4440"/>
  <path d="M40 54 Q30 64 30 76" stroke="#8fa38a" stroke-width="5" fill="none" stroke-linecap="round"/>
  <circle cx="66" cy="40" r="10" fill="#8fa38a"/>
  <path d="M58 33 q-4 6 -2 12 M62 31 q-3 6 -1 12" stroke="#2e2e2e" stroke-width="1.6" fill="none"/>
  <circle cx="70" cy="38" r="2.1" fill="#e0f070"/>
  <path d="M63 46 l2 2 l2 -2 l2 2 l2 -2" stroke="#1d2130" stroke-width="1.4" fill="none"/>
  <path d="M60 52 Q74 56 82 62" stroke="#8fa38a" stroke-width="5" fill="none" stroke-linecap="round"/>
  <path d="M82 62 l5 -3 M82 62 l6 1 M82 62 l4 4" stroke="#e6e1d3" stroke-width="1.6" stroke-linecap="round"/>
</svg>
